# xmcd
# Copyright (C) 1995-1998 Ti Kan
#
# Track frame offsets:
#       150
#       16491
#       25697
#       42837
#       56782
#
# Disc length: 895 seconds
#
# Revision: 0
# Processed by: cddbd v1.4PL0 Copyright (c) Steve Scherf et al.
# Submitted via: CD-Transfer v1.0
#
DISCID=37037d05
DTITLE=The Booker T. Revival - We're All You Need
DYEAR=2001
DGENRE=
TTITLE0=Money Runner
TTITLE1=Raumpatrouille Orion
TTITLE2=You're All I Need To Get By
TTITLE3=Mission Impossible
TTITLE4=One Mint Julip
EXTD=
EXTT0=
EXTT1=
EXTT2=
EXTT3=
EXTT4=
PLAYORDER=
